<svg xmlns="http://www.w3.org/2000/svg" width="500" height="800" viewBox="0 0 500 800">
  <defs>
    <style>
      .rink-outline { fill: #fff; stroke: #d0d0d0; stroke-width: 6; }
      .goal-line { stroke: #c8202f; stroke-width: 4; }
      .blue-line { stroke: #1451f0; stroke-width: 4; }
      .center-line { stroke: #c8202f; stroke-width: 4; }
      .center-divider { stroke: #c8202f; stroke-width: 4; }
      .goal-crease { fill: #6fd3ec; stroke: #c8202f; stroke-width: 4; }
      .goal-net { fill: none; stroke: #2b2b2b; stroke-width: 4; }
      .center-circle { fill: none; }
      .center-red { stroke: #c8202f; stroke-width: 4; }
      .center-blue { stroke: #1451f0; stroke-width: 4; }
      .center-dot { fill: #2b2b2b; }
      .center-text { font: bold 28px 'Arial', sans-serif; fill: #151515; text-anchor: middle; }
    </style>
  </defs>

  <!-- Rink Outline -->
  <rect x="3" y="3" width="494" height="794" rx="60" class="rink-outline" />

  <!-- Goal Nets -->
  <rect x="180" y="20" width="140" height="100" class="goal-net" />
  <rect x="180" y="680" width="140" height="100" class="goal-net" />

  <!-- Goal Lines -->
  <line x1="0" y1="110" x2="500" y2="110" class="goal-line" />
  <line x1="0" y1="690" x2="500" y2="690" class="goal-line" />

  <!-- Creases -->
  <path d="M180 168 v-58 h140 v58 q-70 26 -140 0 z" class="goal-crease" />
  <path d="M180 632 v58 h140 v-58 q-70 -26 -140 0 z" class="goal-crease" />

  <!-- Center Red Lines -->
  <line x1="0" y1="400" x2="180" y2="400" class="center-line" />
  <line x1="320" y1="400" x2="500" y2="400" class="center-line" />

  <!-- Vertical Center Lines -->
  <line x1="250" y1="180" x2="250" y2="330" class="center-divider" />
  <line x1="250" y1="470" x2="250" y2="620" class="center-divider" />

  <!-- Blue Lines -->
  <line x1="0" y1="255" x2="500" y2="255" class="blue-line" />
  <line x1="0" y1="545" x2="500" y2="545" class="blue-line" />

  <!-- Center Circle -->
  <circle cx="250" cy="400" r="70" class="center-circle center-red" />
  <circle cx="250" cy="400" r="58" class="center-circle center-blue" />
  <circle cx="250" cy="400" r="6" class="center-dot" />

  <!-- Center Text -->
  <g transform="translate(250 400) rotate(-20)">
    <text class="center-text" y="-10">Play</text>
    <text class="center-text" y="20">By-Play</text>
  </g>
</svg>
